<mxfile host="app.diagrams.net" modified="2024-02-23T10:21:34.107Z" agent="Mozilla/5.0 (X11; Ubuntu; Linux x86_64; rv:122.0) Gecko/20100101 Firefox/122.0" etag="tV1CwS60Vwu_1UQ9NZ1Y" version="23.1.0" type="github">
  <diagram name="Page-1" id="WNXpiY1kzUANpxHg-rSh">
    <mxGraphModel dx="3048" dy="1809" grid="1" gridSize="10" guides="1" tooltips="1" connect="1" arrows="1" fold="1" page="1" pageScale="1" pageWidth="1333" pageHeight="898" math="0" shadow="0">
      <root>
        <mxCell id="0" />
        <mxCell id="1" parent="0" />
        <mxCell id="lXHlsgU_vgeaITfdus4w-3" value="" style="rounded=1;whiteSpace=wrap;html=1;" parent="1" vertex="1">
          <mxGeometry x="1320" y="-90" width="160" height="770" as="geometry" />
        </mxCell>
        <mxCell id="lXHlsgU_vgeaITfdus4w-4" value="" style="rounded=1;whiteSpace=wrap;html=1;" parent="1" vertex="1">
          <mxGeometry x="65.97" y="-90" width="144.03" height="290" as="geometry" />
        </mxCell>
        <mxCell id="lXHlsgU_vgeaITfdus4w-5" value="" style="rounded=1;whiteSpace=wrap;html=1;" parent="1" vertex="1">
          <mxGeometry x="-170" y="-100" width="155" height="180" as="geometry" />
        </mxCell>
        <mxCell id="lXHlsgU_vgeaITfdus4w-6" value="" style="rounded=1;whiteSpace=wrap;html=1;" parent="1" vertex="1">
          <mxGeometry x="265" y="-250" width="1025" height="1370" as="geometry" />
        </mxCell>
        <mxCell id="lXHlsgU_vgeaITfdus4w-7" value="AWS Cloud" style="points=[[0,0],[0.25,0],[0.5,0],[0.75,0],[1,0],[1,0.25],[1,0.5],[1,0.75],[1,1],[0.75,1],[0.5,1],[0.25,1],[0,1],[0,0.75],[0,0.5],[0,0.25]];outlineConnect=0;gradientColor=none;html=1;whiteSpace=wrap;fontSize=12;fontStyle=0;container=1;pointerEvents=0;collapsible=0;recursiveResize=0;shape=mxgraph.aws4.group;grIcon=mxgraph.aws4.group_aws_cloud_alt;strokeColor=#232F3E;fillColor=none;verticalAlign=top;align=left;spacingLeft=30;fontColor=#232F3E;dashed=0;" parent="1" vertex="1">
          <mxGeometry x="315" y="-180" width="915" height="1230" as="geometry" />
        </mxCell>
        <mxCell id="lXHlsgU_vgeaITfdus4w-8" value="VPC" style="points=[[0,0],[0.25,0],[0.5,0],[0.75,0],[1,0],[1,0.25],[1,0.5],[1,0.75],[1,1],[0.75,1],[0.5,1],[0.25,1],[0,1],[0,0.75],[0,0.5],[0,0.25]];outlineConnect=0;gradientColor=none;html=1;whiteSpace=wrap;fontSize=12;fontStyle=0;container=1;pointerEvents=0;collapsible=0;recursiveResize=0;shape=mxgraph.aws4.group;grIcon=mxgraph.aws4.group_vpc;strokeColor=#248814;fillColor=none;verticalAlign=top;align=left;spacingLeft=30;fontColor=#AAB7B8;dashed=0;" parent="lXHlsgU_vgeaITfdus4w-7" vertex="1">
          <mxGeometry x="30" y="20" width="850" height="1180" as="geometry" />
        </mxCell>
        <mxCell id="lXHlsgU_vgeaITfdus4w-9" value="Availability Zone" style="fillColor=none;strokeColor=#147EBA;dashed=1;verticalAlign=top;fontStyle=0;fontColor=#147EBA;" parent="lXHlsgU_vgeaITfdus4w-8" vertex="1">
          <mxGeometry x="50" y="40" width="190" height="1100" as="geometry" />
        </mxCell>
        <mxCell id="lXHlsgU_vgeaITfdus4w-10" value="Public subnet" style="points=[[0,0],[0.25,0],[0.5,0],[0.75,0],[1,0],[1,0.25],[1,0.5],[1,0.75],[1,1],[0.75,1],[0.5,1],[0.25,1],[0,1],[0,0.75],[0,0.5],[0,0.25]];outlineConnect=0;gradientColor=none;html=1;whiteSpace=wrap;fontSize=12;fontStyle=0;container=1;pointerEvents=0;collapsible=0;recursiveResize=0;shape=mxgraph.aws4.group;grIcon=mxgraph.aws4.group_security_group;grStroke=0;strokeColor=#248814;fillColor=#E9F3E6;verticalAlign=top;align=left;spacingLeft=30;fontColor=#248814;dashed=0;" parent="lXHlsgU_vgeaITfdus4w-8" vertex="1">
          <mxGeometry x="60" y="80" width="160" height="200" as="geometry" />
        </mxCell>
        <mxCell id="lXHlsgU_vgeaITfdus4w-11" value="Web Tier" style="text;html=1;strokeColor=none;fillColor=none;align=center;verticalAlign=middle;whiteSpace=wrap;rounded=0;fontSize=15;rotation=270;" parent="lXHlsgU_vgeaITfdus4w-10" vertex="1">
          <mxGeometry x="-25" y="140" width="85" height="30" as="geometry" />
        </mxCell>
        <mxCell id="bIv_qjZkNBDt_8BkcTH7-18" value="NAT Gateway" style="text;html=1;strokeColor=none;fillColor=none;align=center;verticalAlign=middle;whiteSpace=wrap;rounded=0;fontSize=15;" parent="lXHlsgU_vgeaITfdus4w-10" vertex="1">
          <mxGeometry x="37.5" y="120" width="75" height="30" as="geometry" />
        </mxCell>
        <mxCell id="lXHlsgU_vgeaITfdus4w-13" value="Public subnet" style="points=[[0,0],[0.25,0],[0.5,0],[0.75,0],[1,0],[1,0.25],[1,0.5],[1,0.75],[1,1],[0.75,1],[0.5,1],[0.25,1],[0,1],[0,0.75],[0,0.5],[0,0.25]];outlineConnect=0;gradientColor=none;html=1;whiteSpace=wrap;fontSize=12;fontStyle=0;container=1;pointerEvents=0;collapsible=0;recursiveResize=0;shape=mxgraph.aws4.group;grIcon=mxgraph.aws4.group_security_group;grStroke=0;strokeColor=#248814;fillColor=#E9F3E6;verticalAlign=top;align=left;spacingLeft=30;fontColor=#248814;dashed=0;" parent="lXHlsgU_vgeaITfdus4w-8" vertex="1">
          <mxGeometry x="340" y="80" width="170" height="200" as="geometry" />
        </mxCell>
        <mxCell id="bIv_qjZkNBDt_8BkcTH7-3" value="" style="sketch=0;outlineConnect=0;fontColor=#232F3E;gradientColor=none;fillColor=#8C4FFF;strokeColor=none;dashed=0;verticalLabelPosition=bottom;verticalAlign=top;align=center;html=1;fontSize=12;fontStyle=0;aspect=fixed;pointerEvents=1;shape=mxgraph.aws4.application_load_balancer;" parent="lXHlsgU_vgeaITfdus4w-13" vertex="1">
          <mxGeometry x="50" y="50" width="60" height="60" as="geometry" />
        </mxCell>
        <mxCell id="bIv_qjZkNBDt_8BkcTH7-4" value="&lt;font style=&quot;font-size: 15px;&quot;&gt;Load Balancer&lt;/font&gt;" style="text;html=1;strokeColor=none;fillColor=none;align=center;verticalAlign=middle;whiteSpace=wrap;rounded=0;" parent="lXHlsgU_vgeaITfdus4w-13" vertex="1">
          <mxGeometry x="25" y="120" width="110" height="30" as="geometry" />
        </mxCell>
        <mxCell id="lXHlsgU_vgeaITfdus4w-15" value="Availability Zone" style="fillColor=none;strokeColor=#147EBA;dashed=1;verticalAlign=top;fontStyle=0;fontColor=#147EBA;" parent="lXHlsgU_vgeaITfdus4w-8" vertex="1">
          <mxGeometry x="600" y="40" width="190" height="1100" as="geometry" />
        </mxCell>
        <mxCell id="lXHlsgU_vgeaITfdus4w-16" value="Public subnet" style="points=[[0,0],[0.25,0],[0.5,0],[0.75,0],[1,0],[1,0.25],[1,0.5],[1,0.75],[1,1],[0.75,1],[0.5,1],[0.25,1],[0,1],[0,0.75],[0,0.5],[0,0.25]];outlineConnect=0;gradientColor=none;html=1;whiteSpace=wrap;fontSize=12;fontStyle=0;container=1;pointerEvents=0;collapsible=0;recursiveResize=0;shape=mxgraph.aws4.group;grIcon=mxgraph.aws4.group_security_group;grStroke=0;strokeColor=#248814;fillColor=#E9F3E6;verticalAlign=top;align=left;spacingLeft=30;fontColor=#248814;dashed=0;" parent="lXHlsgU_vgeaITfdus4w-8" vertex="1">
          <mxGeometry x="620" y="80" width="160" height="200" as="geometry" />
        </mxCell>
        <mxCell id="lXHlsgU_vgeaITfdus4w-18" value="Private subnet" style="points=[[0,0],[0.25,0],[0.5,0],[0.75,0],[1,0],[1,0.25],[1,0.5],[1,0.75],[1,1],[0.75,1],[0.5,1],[0.25,1],[0,1],[0,0.75],[0,0.5],[0,0.25]];outlineConnect=0;gradientColor=none;html=1;whiteSpace=wrap;fontSize=12;fontStyle=0;container=1;pointerEvents=0;collapsible=0;recursiveResize=0;shape=mxgraph.aws4.group;grIcon=mxgraph.aws4.group_security_group;grStroke=0;strokeColor=#147EBA;fillColor=#E6F2F8;verticalAlign=top;align=left;spacingLeft=30;fontColor=#147EBA;dashed=0;" parent="lXHlsgU_vgeaITfdus4w-8" vertex="1">
          <mxGeometry x="60" y="322.5" width="160" height="215" as="geometry" />
        </mxCell>
        <mxCell id="lXHlsgU_vgeaITfdus4w-52" value="App Server" style="text;html=1;strokeColor=none;fillColor=none;align=center;verticalAlign=middle;whiteSpace=wrap;rounded=0;fontSize=15;rotation=0;" parent="lXHlsgU_vgeaITfdus4w-18" vertex="1">
          <mxGeometry x="7.5" y="17.5" width="140" height="30" as="geometry" />
        </mxCell>
        <mxCell id="lXHlsgU_vgeaITfdus4w-20" value="Private subnet" style="points=[[0,0],[0.25,0],[0.5,0],[0.75,0],[1,0],[1,0.25],[1,0.5],[1,0.75],[1,1],[0.75,1],[0.5,1],[0.25,1],[0,1],[0,0.75],[0,0.5],[0,0.25]];outlineConnect=0;gradientColor=none;html=1;whiteSpace=wrap;fontSize=12;fontStyle=0;container=1;pointerEvents=0;collapsible=0;recursiveResize=0;shape=mxgraph.aws4.group;grIcon=mxgraph.aws4.group_security_group;grStroke=0;strokeColor=#147EBA;fillColor=#E6F2F8;verticalAlign=top;align=left;spacingLeft=30;fontColor=#147EBA;dashed=0;" parent="lXHlsgU_vgeaITfdus4w-8" vertex="1">
          <mxGeometry x="620" y="320" width="160" height="215" as="geometry" />
        </mxCell>
        <mxCell id="lXHlsgU_vgeaITfdus4w-21" value="Private subnet" style="points=[[0,0],[0.25,0],[0.5,0],[0.75,0],[1,0],[1,0.25],[1,0.5],[1,0.75],[1,1],[0.75,1],[0.5,1],[0.25,1],[0,1],[0,0.75],[0,0.5],[0,0.25]];outlineConnect=0;gradientColor=none;html=1;whiteSpace=wrap;fontSize=12;fontStyle=0;container=1;pointerEvents=0;collapsible=0;recursiveResize=0;shape=mxgraph.aws4.group;grIcon=mxgraph.aws4.group_security_group;grStroke=0;strokeColor=#147EBA;fillColor=#E6F2F8;verticalAlign=top;align=left;spacingLeft=30;fontColor=#147EBA;dashed=0;" parent="lXHlsgU_vgeaITfdus4w-8" vertex="1">
          <mxGeometry x="340" y="320" width="160" height="215" as="geometry" />
        </mxCell>
        <mxCell id="lXHlsgU_vgeaITfdus4w-31" value="Private subnet" style="points=[[0,0],[0.25,0],[0.5,0],[0.75,0],[1,0],[1,0.25],[1,0.5],[1,0.75],[1,1],[0.75,1],[0.5,1],[0.25,1],[0,1],[0,0.75],[0,0.5],[0,0.25]];outlineConnect=0;gradientColor=none;html=1;whiteSpace=wrap;fontSize=12;fontStyle=0;container=1;pointerEvents=0;collapsible=0;recursiveResize=0;shape=mxgraph.aws4.group;grIcon=mxgraph.aws4.group_security_group;grStroke=0;strokeColor=#147EBA;fillColor=#E6F2F8;verticalAlign=top;align=left;spacingLeft=30;fontColor=#147EBA;dashed=0;" parent="lXHlsgU_vgeaITfdus4w-8" vertex="1">
          <mxGeometry x="60" y="597.5" width="160" height="215" as="geometry" />
        </mxCell>
        <mxCell id="lXHlsgU_vgeaITfdus4w-53" value="Marketing website" style="text;html=1;strokeColor=none;fillColor=none;align=center;verticalAlign=middle;whiteSpace=wrap;rounded=0;fontSize=15;rotation=0;" parent="lXHlsgU_vgeaITfdus4w-31" vertex="1">
          <mxGeometry x="7.5" y="20" width="140" height="30" as="geometry" />
        </mxCell>
        <mxCell id="lXHlsgU_vgeaITfdus4w-35" value="Private subnet" style="points=[[0,0],[0.25,0],[0.5,0],[0.75,0],[1,0],[1,0.25],[1,0.5],[1,0.75],[1,1],[0.75,1],[0.5,1],[0.25,1],[0,1],[0,0.75],[0,0.5],[0,0.25]];outlineConnect=0;gradientColor=none;html=1;whiteSpace=wrap;fontSize=12;fontStyle=0;container=1;pointerEvents=0;collapsible=0;recursiveResize=0;shape=mxgraph.aws4.group;grIcon=mxgraph.aws4.group_security_group;grStroke=0;strokeColor=#147EBA;fillColor=#E6F2F8;verticalAlign=top;align=left;spacingLeft=30;fontColor=#147EBA;dashed=0;" parent="lXHlsgU_vgeaITfdus4w-8" vertex="1">
          <mxGeometry x="340" y="597.5" width="160" height="215" as="geometry" />
        </mxCell>
        <mxCell id="lXHlsgU_vgeaITfdus4w-36" value="Private subnet" style="points=[[0,0],[0.25,0],[0.5,0],[0.75,0],[1,0],[1,0.25],[1,0.5],[1,0.75],[1,1],[0.75,1],[0.5,1],[0.25,1],[0,1],[0,0.75],[0,0.5],[0,0.25]];outlineConnect=0;gradientColor=none;html=1;whiteSpace=wrap;fontSize=12;fontStyle=0;container=1;pointerEvents=0;collapsible=0;recursiveResize=0;shape=mxgraph.aws4.group;grIcon=mxgraph.aws4.group_security_group;grStroke=0;strokeColor=#147EBA;fillColor=#E6F2F8;verticalAlign=top;align=left;spacingLeft=30;fontColor=#147EBA;dashed=0;" parent="lXHlsgU_vgeaITfdus4w-8" vertex="1">
          <mxGeometry x="615" y="597.5" width="160" height="215" as="geometry" />
        </mxCell>
        <mxCell id="lXHlsgU_vgeaITfdus4w-39" value="" style="outlineConnect=0;dashed=0;verticalLabelPosition=bottom;verticalAlign=top;align=center;html=1;shape=mxgraph.aws3.ec2;fillColor=#F58534;gradientColor=none;" parent="lXHlsgU_vgeaITfdus4w-8" vertex="1">
          <mxGeometry x="105" y="675" width="70" height="70" as="geometry" />
        </mxCell>
        <mxCell id="lXHlsgU_vgeaITfdus4w-50" value="" style="outlineConnect=0;dashed=0;verticalLabelPosition=bottom;verticalAlign=top;align=center;html=1;shape=mxgraph.aws3.ec2;fillColor=#F58534;gradientColor=none;opacity=70;textOpacity=70;" parent="lXHlsgU_vgeaITfdus4w-8" vertex="1">
          <mxGeometry x="385" y="680" width="70" height="70" as="geometry" />
        </mxCell>
        <mxCell id="lXHlsgU_vgeaITfdus4w-51" value="" style="outlineConnect=0;dashed=0;verticalLabelPosition=bottom;verticalAlign=top;align=center;html=1;shape=mxgraph.aws3.ec2;fillColor=#F58534;gradientColor=none;opacity=70;textOpacity=70;" parent="lXHlsgU_vgeaITfdus4w-8" vertex="1">
          <mxGeometry x="661" y="680" width="70" height="70" as="geometry" />
        </mxCell>
        <mxCell id="lXHlsgU_vgeaITfdus4w-104" value="Private subnet" style="points=[[0,0],[0.25,0],[0.5,0],[0.75,0],[1,0],[1,0.25],[1,0.5],[1,0.75],[1,1],[0.75,1],[0.5,1],[0.25,1],[0,1],[0,0.75],[0,0.5],[0,0.25]];outlineConnect=0;gradientColor=none;html=1;whiteSpace=wrap;fontSize=12;fontStyle=0;container=1;pointerEvents=0;collapsible=0;recursiveResize=0;shape=mxgraph.aws4.group;grIcon=mxgraph.aws4.group_security_group;grStroke=0;strokeColor=#147EBA;fillColor=#E6F2F8;verticalAlign=top;align=left;spacingLeft=30;fontColor=#147EBA;dashed=0;" parent="lXHlsgU_vgeaITfdus4w-8" vertex="1">
          <mxGeometry x="65" y="880" width="160" height="215" as="geometry" />
        </mxCell>
        <mxCell id="lXHlsgU_vgeaITfdus4w-106" value="Private subnet" style="points=[[0,0],[0.25,0],[0.5,0],[0.75,0],[1,0],[1,0.25],[1,0.5],[1,0.75],[1,1],[0.75,1],[0.5,1],[0.25,1],[0,1],[0,0.75],[0,0.5],[0,0.25]];outlineConnect=0;gradientColor=none;html=1;whiteSpace=wrap;fontSize=12;fontStyle=0;container=1;pointerEvents=0;collapsible=0;recursiveResize=0;shape=mxgraph.aws4.group;grIcon=mxgraph.aws4.group_security_group;grStroke=0;strokeColor=#147EBA;fillColor=#E6F2F8;verticalAlign=top;align=left;spacingLeft=30;fontColor=#147EBA;dashed=0;" parent="lXHlsgU_vgeaITfdus4w-8" vertex="1">
          <mxGeometry x="345" y="880" width="160" height="215" as="geometry" />
        </mxCell>
        <mxCell id="bIv_qjZkNBDt_8BkcTH7-15" value="&lt;font style=&quot;font-size: 15px;&quot;&gt;RDS&lt;/font&gt;" style="text;html=1;strokeColor=none;fillColor=none;align=center;verticalAlign=middle;whiteSpace=wrap;rounded=0;" parent="lXHlsgU_vgeaITfdus4w-106" vertex="1">
          <mxGeometry x="40" y="120" width="60" height="30" as="geometry" />
        </mxCell>
        <mxCell id="lXHlsgU_vgeaITfdus4w-108" value="Private subnet" style="points=[[0,0],[0.25,0],[0.5,0],[0.75,0],[1,0],[1,0.25],[1,0.5],[1,0.75],[1,1],[0.75,1],[0.5,1],[0.25,1],[0,1],[0,0.75],[0,0.5],[0,0.25]];outlineConnect=0;gradientColor=none;html=1;whiteSpace=wrap;fontSize=12;fontStyle=0;container=1;pointerEvents=0;collapsible=0;recursiveResize=0;shape=mxgraph.aws4.group;grIcon=mxgraph.aws4.group_security_group;grStroke=0;strokeColor=#147EBA;fillColor=#E6F2F8;verticalAlign=top;align=left;spacingLeft=30;fontColor=#147EBA;dashed=0;" parent="lXHlsgU_vgeaITfdus4w-8" vertex="1">
          <mxGeometry x="616" y="880" width="160" height="215" as="geometry" />
        </mxCell>
        <mxCell id="lXHlsgU_vgeaITfdus4w-23" value="" style="sketch=0;outlineConnect=0;fontColor=#232F3E;gradientColor=none;fillColor=#4D27AA;strokeColor=none;dashed=0;verticalLabelPosition=bottom;verticalAlign=top;align=center;html=1;fontSize=12;fontStyle=0;aspect=fixed;pointerEvents=1;shape=mxgraph.aws4.nat_gateway;" parent="lXHlsgU_vgeaITfdus4w-8" vertex="1">
          <mxGeometry x="671" y="120" width="60" height="60" as="geometry" />
        </mxCell>
        <mxCell id="lXHlsgU_vgeaITfdus4w-17" value="NAT Gateway" style="text;html=1;strokeColor=none;fillColor=none;align=center;verticalAlign=middle;whiteSpace=wrap;rounded=0;fontSize=15;" parent="lXHlsgU_vgeaITfdus4w-8" vertex="1">
          <mxGeometry x="655" y="200" width="75" height="30" as="geometry" />
        </mxCell>
        <mxCell id="bIv_qjZkNBDt_8BkcTH7-6" style="edgeStyle=orthogonalEdgeStyle;rounded=0;orthogonalLoop=1;jettySize=auto;html=1;entryX=0.5;entryY=0;entryDx=0;entryDy=0;entryPerimeter=0;" parent="lXHlsgU_vgeaITfdus4w-8" source="bIv_qjZkNBDt_8BkcTH7-3" edge="1">
          <mxGeometry relative="1" as="geometry">
            <mxPoint x="420" y="400" as="targetPoint" />
          </mxGeometry>
        </mxCell>
        <mxCell id="lXHlsgU_vgeaITfdus4w-92" value="" style="sketch=0;outlineConnect=0;fontColor=#232F3E;gradientColor=none;fillColor=#4D27AA;strokeColor=none;dashed=0;verticalLabelPosition=bottom;verticalAlign=top;align=center;html=1;fontSize=12;fontStyle=0;aspect=fixed;pointerEvents=1;shape=mxgraph.aws4.nat_gateway;" parent="lXHlsgU_vgeaITfdus4w-8" vertex="1">
          <mxGeometry x="105" y="130" width="60" height="60" as="geometry" />
        </mxCell>
        <mxCell id="bIv_qjZkNBDt_8BkcTH7-19" value="&lt;div&gt;Data Tier&lt;/div&gt;&lt;div&gt;&lt;br&gt;&lt;/div&gt;&lt;div&gt;&lt;br&gt;&lt;/div&gt;&lt;div&gt;&lt;br&gt;&lt;/div&gt;" style="text;html=1;strokeColor=none;fillColor=none;align=center;verticalAlign=middle;whiteSpace=wrap;rounded=0;fontSize=15;rotation=270;" parent="lXHlsgU_vgeaITfdus4w-8" vertex="1">
          <mxGeometry x="65" y="1058" width="85" as="geometry" />
        </mxCell>
        <mxCell id="bIv_qjZkNBDt_8BkcTH7-8" value="" style="outlineConnect=0;dashed=0;verticalLabelPosition=bottom;verticalAlign=top;align=center;html=1;shape=mxgraph.aws3.ec2;fillColor=#F58534;gradientColor=none;" parent="lXHlsgU_vgeaITfdus4w-8" vertex="1">
          <mxGeometry x="110" y="410" width="70" height="70" as="geometry" />
        </mxCell>
        <mxCell id="lXHlsgU_vgeaITfdus4w-58" value="" style="sketch=0;points=[[0,0,0],[0.25,0,0],[0.5,0,0],[0.75,0,0],[1,0,0],[0,1,0],[0.25,1,0],[0.5,1,0],[0.75,1,0],[1,1,0],[0,0.25,0],[0,0.5,0],[0,0.75,0],[1,0.25,0],[1,0.5,0],[1,0.75,0]];outlineConnect=0;fontColor=#232F3E;gradientColor=#945DF2;gradientDirection=north;fillColor=#5A30B5;strokeColor=#ffffff;dashed=0;verticalLabelPosition=bottom;verticalAlign=top;align=center;html=1;fontSize=12;fontStyle=0;aspect=fixed;shape=mxgraph.aws4.resourceIcon;resIcon=mxgraph.aws4.route_53;" parent="1" vertex="1">
          <mxGeometry x="103.47000000000003" y="-35" width="60" height="60" as="geometry" />
        </mxCell>
        <mxCell id="lXHlsgU_vgeaITfdus4w-60" value="" style="edgeStyle=orthogonalEdgeStyle;rounded=0;orthogonalLoop=1;jettySize=auto;html=1;" parent="1" source="lXHlsgU_vgeaITfdus4w-61" target="lXHlsgU_vgeaITfdus4w-58" edge="1">
          <mxGeometry relative="1" as="geometry" />
        </mxCell>
        <mxCell id="lXHlsgU_vgeaITfdus4w-61" value="" style="sketch=0;pointerEvents=1;shadow=0;dashed=0;html=1;strokeColor=none;labelPosition=center;verticalLabelPosition=bottom;verticalAlign=top;align=center;fillColor=#505050;shape=mxgraph.mscae.intune.user_group" parent="1" vertex="1">
          <mxGeometry x="-135" y="-35" width="80" height="60" as="geometry" />
        </mxCell>
        <mxCell id="lXHlsgU_vgeaITfdus4w-62" value="&lt;font style=&quot;font-size: 15px;&quot;&gt;User&lt;/font&gt;" style="text;html=1;strokeColor=none;fillColor=none;align=center;verticalAlign=middle;whiteSpace=wrap;rounded=0;" parent="1" vertex="1">
          <mxGeometry x="-140" y="30" width="90" height="30" as="geometry" />
        </mxCell>
        <mxCell id="lXHlsgU_vgeaITfdus4w-64" value="Route53" style="text;html=1;strokeColor=none;fillColor=none;align=center;verticalAlign=middle;whiteSpace=wrap;rounded=0;fontSize=15;" parent="1" vertex="1">
          <mxGeometry x="93.47000000000003" y="25" width="80" height="30" as="geometry" />
        </mxCell>
        <mxCell id="lXHlsgU_vgeaITfdus4w-66" value="" style="sketch=0;points=[[0,0,0],[0.25,0,0],[0.5,0,0],[0.75,0,0],[1,0,0],[0,1,0],[0.25,1,0],[0.5,1,0],[0.75,1,0],[1,1,0],[0,0.25,0],[0,0.5,0],[0,0.75,0],[1,0.25,0],[1,0.5,0],[1,0.75,0]];points=[[0,0,0],[0.25,0,0],[0.5,0,0],[0.75,0,0],[1,0,0],[0,1,0],[0.25,1,0],[0.5,1,0],[0.75,1,0],[1,1,0],[0,0.25,0],[0,0.5,0],[0,0.75,0],[1,0.25,0],[1,0.5,0],[1,0.75,0]];outlineConnect=0;fontColor=#232F3E;gradientColor=#F34482;gradientDirection=north;fillColor=#BC1356;strokeColor=#ffffff;dashed=0;verticalLabelPosition=bottom;verticalAlign=top;align=center;html=1;fontSize=12;fontStyle=0;aspect=fixed;shape=mxgraph.aws4.resourceIcon;resIcon=mxgraph.aws4.cloudtrail;opacity=70;" parent="1" vertex="1">
          <mxGeometry x="1349.9999999999995" y="90" width="70" height="70" as="geometry" />
        </mxCell>
        <mxCell id="lXHlsgU_vgeaITfdus4w-68" value="CloudTrail" style="text;html=1;align=center;verticalAlign=middle;resizable=0;points=[];autosize=1;strokeColor=none;fillColor=none;fontSize=15;" parent="1" vertex="1">
          <mxGeometry x="1342.5" y="170" width="90" height="30" as="geometry" />
        </mxCell>
        <mxCell id="lXHlsgU_vgeaITfdus4w-70" value="" style="sketch=0;points=[[0,0,0],[0.25,0,0],[0.5,0,0],[0.75,0,0],[1,0,0],[0,1,0],[0.25,1,0],[0.5,1,0],[0.75,1,0],[1,1,0],[0,0.25,0],[0,0.5,0],[0,0.75,0],[1,0.25,0],[1,0.5,0],[1,0.75,0]];points=[[0,0,0],[0.25,0,0],[0.5,0,0],[0.75,0,0],[1,0,0],[0,1,0],[0.25,1,0],[0.5,1,0],[0.75,1,0],[1,1,0],[0,0.25,0],[0,0.5,0],[0,0.75,0],[1,0.25,0],[1,0.5,0],[1,0.75,0]];outlineConnect=0;fontColor=#232F3E;gradientColor=#F34482;gradientDirection=north;fillColor=#BC1356;strokeColor=#ffffff;dashed=0;verticalLabelPosition=bottom;verticalAlign=top;align=center;html=1;fontSize=12;fontStyle=0;aspect=fixed;shape=mxgraph.aws4.resourceIcon;resIcon=mxgraph.aws4.cloudwatch_2;" parent="1" vertex="1">
          <mxGeometry x="1354.9999999999998" y="230" width="70" height="70" as="geometry" />
        </mxCell>
        <mxCell id="lXHlsgU_vgeaITfdus4w-71" value="&lt;font style=&quot;font-size: 15px;&quot;&gt;CloudWatch&lt;/font&gt;" style="text;html=1;strokeColor=none;fillColor=none;align=center;verticalAlign=middle;whiteSpace=wrap;rounded=0;" parent="1" vertex="1">
          <mxGeometry x="1342.4999999999998" y="310" width="90" height="30" as="geometry" />
        </mxCell>
        <mxCell id="lXHlsgU_vgeaITfdus4w-74" value="" style="outlineConnect=0;dashed=0;verticalLabelPosition=bottom;verticalAlign=top;align=center;html=1;shape=mxgraph.aws3.iam;fillColor=#759C3E;gradientColor=none;" parent="1" vertex="1">
          <mxGeometry x="1355" y="-60" width="60" height="78" as="geometry" />
        </mxCell>
        <mxCell id="lXHlsgU_vgeaITfdus4w-75" value="IAM" style="text;html=1;align=center;verticalAlign=middle;resizable=0;points=[];autosize=1;strokeColor=none;fillColor=none;" parent="1" vertex="1">
          <mxGeometry x="1365" y="25" width="40" height="30" as="geometry" />
        </mxCell>
        <mxCell id="lXHlsgU_vgeaITfdus4w-76" value="" style="outlineConnect=0;dashed=0;verticalLabelPosition=bottom;verticalAlign=top;align=center;html=1;shape=mxgraph.aws3.sns;fillColor=#D9A741;gradientColor=none;" parent="1" vertex="1">
          <mxGeometry x="1349.25" y="380" width="76.5" height="76.5" as="geometry" />
        </mxCell>
        <mxCell id="lXHlsgU_vgeaITfdus4w-77" value="&lt;font style=&quot;font-size: 15px;&quot;&gt;SNS&lt;/font&gt;" style="text;html=1;strokeColor=none;fillColor=none;align=center;verticalAlign=middle;whiteSpace=wrap;rounded=0;" parent="1" vertex="1">
          <mxGeometry x="1357.5" y="457.5" width="60" height="30" as="geometry" />
        </mxCell>
        <mxCell id="lXHlsgU_vgeaITfdus4w-91" value="Availability Zone" style="fillColor=none;strokeColor=#147EBA;dashed=1;verticalAlign=top;fontStyle=0;fontColor=#147EBA;" parent="1" vertex="1">
          <mxGeometry x="675" y="-120" width="190" height="1105" as="geometry" />
        </mxCell>
        <mxCell id="TxpPUxDE3qKfsuC-h3yg-23" value="" style="endArrow=classic;html=1;rounded=0;" parent="1" edge="1">
          <mxGeometry width="50" height="50" relative="1" as="geometry">
            <mxPoint x="200" as="sourcePoint" />
            <mxPoint x="260" as="targetPoint" />
          </mxGeometry>
        </mxCell>
        <mxCell id="bIv_qjZkNBDt_8BkcTH7-1" value="SSL padlock" style="sketch=0;outlineConnect=0;fontColor=#232F3E;gradientColor=none;strokeColor=#232F3E;fillColor=#ffffff;dashed=0;verticalLabelPosition=bottom;verticalAlign=top;align=center;html=1;fontSize=12;fontStyle=0;aspect=fixed;shape=mxgraph.aws4.resourceIcon;resIcon=mxgraph.aws4.ssl_padlock;" parent="1" vertex="1">
          <mxGeometry x="103.47" y="90" width="60" height="60" as="geometry" />
        </mxCell>
        <mxCell id="bIv_qjZkNBDt_8BkcTH7-7" value="Auto Scaling group" style="points=[[0,0],[0.25,0],[0.5,0],[0.75,0],[1,0],[1,0.25],[1,0.5],[1,0.75],[1,1],[0.75,1],[0.5,1],[0.25,1],[0,1],[0,0.75],[0,0.5],[0,0.25]];outlineConnect=0;gradientColor=none;html=1;whiteSpace=wrap;fontSize=12;fontStyle=0;container=1;pointerEvents=0;collapsible=0;recursiveResize=0;shape=mxgraph.aws4.groupCenter;grIcon=mxgraph.aws4.group_auto_scaling_group;grStroke=1;strokeColor=#D86613;fillColor=none;verticalAlign=top;align=center;fontColor=#D86613;dashed=1;spacingTop=25;" parent="1" vertex="1">
          <mxGeometry x="430" y="220" width="680" height="120" as="geometry" />
        </mxCell>
        <mxCell id="bIv_qjZkNBDt_8BkcTH7-9" value="" style="outlineConnect=0;dashed=0;verticalLabelPosition=bottom;verticalAlign=top;align=center;html=1;shape=mxgraph.aws3.ec2;fillColor=#F58534;gradientColor=none;opacity=70;" parent="bIv_qjZkNBDt_8BkcTH7-7" vertex="1">
          <mxGeometry x="305" y="25" width="70" height="70" as="geometry" />
        </mxCell>
        <mxCell id="bIv_qjZkNBDt_8BkcTH7-10" value="" style="outlineConnect=0;dashed=0;verticalLabelPosition=bottom;verticalAlign=top;align=center;html=1;shape=mxgraph.aws3.ec2;fillColor=#F58534;gradientColor=none;opacity=70;" parent="bIv_qjZkNBDt_8BkcTH7-7" vertex="1">
          <mxGeometry x="575" y="25" width="70" height="70" as="geometry" />
        </mxCell>
        <mxCell id="bIv_qjZkNBDt_8BkcTH7-12" value="Auto Scaling group" style="points=[[0,0],[0.25,0],[0.5,0],[0.75,0],[1,0],[1,0.25],[1,0.5],[1,0.75],[1,1],[0.75,1],[0.5,1],[0.25,1],[0,1],[0,0.75],[0,0.5],[0,0.25]];outlineConnect=0;gradientColor=none;html=1;whiteSpace=wrap;fontSize=12;fontStyle=0;container=1;pointerEvents=0;collapsible=0;recursiveResize=0;shape=mxgraph.aws4.groupCenter;grIcon=mxgraph.aws4.group_auto_scaling_group;grStroke=1;strokeColor=#D86613;fillColor=none;verticalAlign=top;align=center;fontColor=#D86613;dashed=1;spacingTop=25;" parent="1" vertex="1">
          <mxGeometry x="420" y="498" width="680" height="120" as="geometry" />
        </mxCell>
        <mxCell id="bIv_qjZkNBDt_8BkcTH7-14" value="" style="sketch=0;outlineConnect=0;fontColor=#232F3E;gradientColor=none;fillColor=#C925D1;strokeColor=none;dashed=0;verticalLabelPosition=bottom;verticalAlign=top;align=center;html=1;fontSize=12;fontStyle=0;aspect=fixed;pointerEvents=1;shape=mxgraph.aws4.rds_mariadb_instance;" parent="1" vertex="1">
          <mxGeometry x="731" y="770" width="60" height="60" as="geometry" />
        </mxCell>
        <mxCell id="bIv_qjZkNBDt_8BkcTH7-16" value="" style="sketch=0;outlineConnect=0;fontColor=#232F3E;gradientColor=none;fillColor=#7AA116;strokeColor=none;dashed=0;verticalLabelPosition=bottom;verticalAlign=top;align=center;html=1;fontSize=12;fontStyle=0;aspect=fixed;pointerEvents=1;shape=mxgraph.aws4.bucket_with_objects;" parent="1" vertex="1">
          <mxGeometry x="1358" y="513" width="75" height="78" as="geometry" />
        </mxCell>
        <mxCell id="bIv_qjZkNBDt_8BkcTH7-17" value="&lt;font style=&quot;font-size: 15px;&quot;&gt;S3 Bucket&lt;/font&gt;" style="text;html=1;strokeColor=none;fillColor=none;align=center;verticalAlign=middle;whiteSpace=wrap;rounded=0;" parent="1" vertex="1">
          <mxGeometry x="1365" y="600" width="60" height="30" as="geometry" />
        </mxCell>
      </root>
    </mxGraphModel>
  </diagram>
</mxfile>
